<svg width="243" height="87" viewBox="0 0 243 87" fill="none" xmlns="http://www.w3.org/2000/svg">
<rect x="0.5" y="0.5" width="242" height="86" rx="20.5" fill="#1F2124" stroke="#2B2E32"/>
<path d="M52.5 57.75C59.8178 57.75 65.75 51.8178 65.75 44.5C65.75 37.1822 59.8178 31.25 52.5 31.25C45.1822 31.25 39.25 37.1822 39.25 44.5C39.25 51.8178 45.1822 57.75 52.5 57.75Z" fill="white"/>
<path d="M41.1445 51.125L29.5797 31.25C27.2348 35.2786 26 39.8489 26 44.5012C26 49.1535 27.2341 53.7238 29.5788 57.7527C31.9235 61.7815 35.2959 65.1268 39.3568 67.4523C43.4178 69.7777 48.0243 71.0013 52.713 71L64.2778 51.125V51.1216C63.1064 53.1371 61.4209 54.8109 59.3906 55.9749C57.3603 57.1388 55.057 57.7517 52.7122 57.7521C50.3674 57.7524 48.0638 57.1402 46.0331 55.9768C44.0026 54.8135 42.3164 53.1401 41.1445 51.125Z" fill="url(#paint0_linear_14_65)"/>
<path d="M63.9768 51.1266L52.5048 71C57.156 71.0007 61.7253 69.7765 65.7534 67.4507C69.7815 65.1249 73.1264 61.7794 75.4517 57.7506C77.777 53.7217 79.0008 49.1515 79 44.4996C78.9992 39.8477 77.7738 35.2781 75.447 31.25H52.5029L52.5 31.2518C54.826 31.2506 57.1113 31.8621 59.1261 33.0245C61.1408 34.1871 62.814 35.8597 63.9773 37.8743C65.1406 39.8888 65.753 42.1742 65.753 44.5004C65.7529 46.8268 65.1402 49.1121 63.9768 51.1266Z" fill="url(#paint1_linear_14_65)"/>
<path d="M52.1319 54.8055C58.0268 54.8055 62.8056 50.0267 62.8056 44.1319C62.8056 38.237 58.0268 33.4583 52.1319 33.4583C46.2371 33.4583 41.4584 38.237 41.4584 44.1319C41.4584 50.0267 46.2371 54.8055 52.1319 54.8055Z" fill="#1A73E8"/>
<path d="M52.5009 31.2494H75.3194C73.0071 27.2209 69.6808 23.8755 65.6749 21.5497C61.669 19.224 57.1247 18 52.499 18C47.8733 18 43.3292 19.2253 39.3237 21.5516C35.3181 23.878 31.9923 27.2238 29.6805 31.2526L41.0898 51.1234L41.0927 51.125C39.9351 49.1111 39.3252 46.8263 39.3245 44.5002C39.3237 42.1742 39.9322 39.8889 41.0885 37.8743C42.2448 35.8597 43.9083 34.1868 45.9116 33.0238C47.915 31.8609 50.1877 31.2489 52.5009 31.2494Z" fill="url(#paint2_linear_14_65)"/>
<path d="M93.5813 24.5373C93.4783 24.2141 93.3398 23.9247 93.1658 23.669C92.9954 23.4098 92.7912 23.1896 92.5533 23.0085C92.3153 22.8239 92.0437 22.6836 91.7383 22.5877C91.4364 22.4918 91.1044 22.4439 90.7422 22.4439C90.1278 22.4439 89.5739 22.6019 89.0803 22.918C88.5866 23.234 88.196 23.6974 87.9084 24.3082C87.6243 24.9155 87.4822 25.6594 87.4822 26.5401C87.4822 27.4244 87.6261 28.1719 87.9137 28.7827C88.2013 29.3935 88.5955 29.8569 89.0962 30.1729C89.5969 30.489 90.1669 30.647 90.8061 30.647C91.3991 30.647 91.9158 30.5263 92.3562 30.2848C92.8001 30.0433 93.1428 29.7024 93.3842 29.2621C93.6293 28.8182 93.7518 28.2962 93.7518 27.696L94.1779 27.7759H91.0565V26.4176H95.3445V27.6587C95.3445 28.5749 95.1491 29.3704 94.7585 30.0451C94.3714 30.7163 93.8352 31.2347 93.1499 31.6005C92.468 31.9663 91.6868 32.1491 90.8061 32.1491C89.8189 32.1491 88.9524 31.9219 88.2067 31.4673C87.4645 31.0128 86.8857 30.3683 86.4702 29.5337C86.0547 28.6957 85.8469 27.7013 85.8469 26.5508C85.8469 25.6808 85.9677 24.8995 86.2092 24.207C86.4506 23.5146 86.7898 22.9268 87.2266 22.4439C87.6669 21.9574 88.1836 21.5863 88.7766 21.3306C89.3732 21.0714 90.0249 20.9418 90.7315 20.9418C91.321 20.9418 91.8697 21.0288 92.3775 21.2028C92.8888 21.3768 93.3434 21.6236 93.7411 21.9432C94.1424 22.2628 94.4744 22.6428 94.7372 23.0831C95 23.5199 95.1776 24.0046 95.2699 24.5373H93.5813ZM100.832 32.1651C100.026 32.1651 99.3319 31.9929 98.7496 31.6484C98.1707 31.3004 97.7233 30.8121 97.4072 30.1836C97.0947 29.5515 96.9385 28.8111 96.9385 27.9624C96.9385 27.1243 97.0947 26.3857 97.4072 25.7464C97.7233 25.1072 98.1636 24.6083 98.7282 24.2496C99.2964 23.891 99.9605 23.7116 100.72 23.7116C101.182 23.7116 101.63 23.788 102.063 23.9407C102.496 24.0934 102.885 24.3331 103.229 24.6598C103.574 24.9865 103.845 25.4109 104.044 25.9329C104.243 26.4513 104.343 27.0817 104.343 27.8239V28.3885H97.8387V27.1953H102.782C102.782 26.7763 102.697 26.4052 102.526 26.082C102.356 25.7553 102.116 25.4979 101.807 25.3097C101.502 25.1214 101.143 25.0273 100.731 25.0273C100.284 25.0273 99.893 25.1374 99.5592 25.3576C99.229 25.5742 98.9733 25.8583 98.7922 26.2099C98.6146 26.5579 98.5258 26.9361 98.5258 27.3445V28.2766C98.5258 28.8235 98.6217 29.2887 98.8135 29.6722C99.0088 30.0558 99.2805 30.3487 99.6285 30.5511C99.9765 30.75 100.383 30.8494 100.848 30.8494C101.15 30.8494 101.425 30.8068 101.674 30.7216C101.922 30.6328 102.137 30.5014 102.318 30.3274C102.5 30.1534 102.638 29.9386 102.734 29.6829L104.241 29.9545C104.121 30.3984 103.904 30.7873 103.592 31.1211C103.283 31.4513 102.894 31.7088 102.425 31.8935C101.96 32.0746 101.429 32.1651 100.832 32.1651ZM109.929 23.8182V25.0966H105.46V23.8182H109.929ZM106.658 21.858H108.251V29.5977C108.251 29.9066 108.297 30.1392 108.39 30.2955C108.482 30.4482 108.601 30.5529 108.746 30.6097C108.896 30.663 109.057 30.6896 109.231 30.6896C109.359 30.6896 109.471 30.6808 109.567 30.663C109.663 30.6452 109.737 30.631 109.79 30.6204L110.078 31.9361C109.986 31.9716 109.854 32.0071 109.684 32.0426C109.513 32.0817 109.3 32.103 109.045 32.1065C108.626 32.1136 108.235 32.0391 107.873 31.8828C107.511 31.7266 107.218 31.4851 106.994 31.1584C106.77 30.8317 106.658 30.4215 106.658 29.9279V21.858ZM115.661 32V23.8182H117.253V32H115.661ZM116.465 22.5558C116.188 22.5558 115.95 22.4634 115.751 22.2788C115.556 22.0906 115.458 21.8668 115.458 21.6076C115.458 21.3448 115.556 21.1211 115.751 20.9364C115.95 20.7482 116.188 20.6541 116.465 20.6541C116.742 20.6541 116.978 20.7482 117.173 20.9364C117.372 21.1211 117.472 21.3448 117.472 21.6076C117.472 21.8668 117.372 22.0906 117.173 22.2788C116.978 22.4634 116.742 22.5558 116.465 22.5558ZM123.215 23.8182V25.0966H118.746V23.8182H123.215ZM119.945 21.858H121.537V29.5977C121.537 29.9066 121.583 30.1392 121.676 30.2955C121.768 30.4482 121.887 30.5529 122.033 30.6097C122.182 30.663 122.343 30.6896 122.517 30.6896C122.645 30.6896 122.757 30.6808 122.853 30.663C122.949 30.6452 123.023 30.631 123.077 30.6204L123.364 31.9361C123.272 31.9716 123.141 32.0071 122.97 32.0426C122.8 32.0817 122.587 32.103 122.331 32.1065C121.912 32.1136 121.521 32.0391 121.159 31.8828C120.797 31.7266 120.504 31.4851 120.28 31.1584C120.056 30.8317 119.945 30.4215 119.945 29.9279V21.858ZM132.84 23.8182V25.0966H128.217V23.8182H132.84ZM129.485 32V22.87C129.485 22.3587 129.597 21.9343 129.82 21.5969C130.044 21.256 130.34 21.0021 130.71 20.8352C131.079 20.6648 131.48 20.5795 131.914 20.5795C132.233 20.5795 132.507 20.6062 132.734 20.6594C132.961 20.7092 133.13 20.7553 133.24 20.7979L132.867 22.087C132.793 22.0657 132.697 22.0408 132.579 22.0124C132.462 21.9805 132.32 21.9645 132.153 21.9645C131.766 21.9645 131.489 22.0604 131.322 22.2521C131.159 22.4439 131.077 22.7209 131.077 23.0831V32H129.485ZM137.608 32.1651C136.841 32.1651 136.171 31.9893 135.6 31.6378C135.028 31.2862 134.584 30.7944 134.268 30.1623C133.952 29.5302 133.794 28.7915 133.794 27.9464C133.794 27.0977 133.952 26.3555 134.268 25.7198C134.584 25.0842 135.028 24.5906 135.6 24.239C136.171 23.8874 136.841 23.7116 137.608 23.7116C138.375 23.7116 139.044 23.8874 139.616 24.239C140.188 24.5906 140.632 25.0842 140.948 25.7198C141.264 26.3555 141.422 27.0977 141.422 27.9464C141.422 28.7915 141.264 29.5302 140.948 30.1623C140.632 30.7944 140.188 31.2862 139.616 31.6378C139.044 31.9893 138.375 32.1651 137.608 32.1651ZM137.613 30.8281C138.11 30.8281 138.522 30.6967 138.849 30.4339C139.176 30.1712 139.417 29.8214 139.573 29.3846C139.733 28.9478 139.813 28.4666 139.813 27.9411C139.813 27.419 139.733 26.9396 139.573 26.5028C139.417 26.0625 139.176 25.7092 138.849 25.4428C138.522 25.1765 138.11 25.0433 137.613 25.0433C137.112 25.0433 136.697 25.1765 136.367 25.4428C136.04 25.7092 135.797 26.0625 135.637 26.5028C135.481 26.9396 135.403 27.419 135.403 27.9411C135.403 28.4666 135.481 28.9478 135.637 29.3846C135.797 29.8214 136.04 30.1712 136.367 30.4339C136.697 30.6967 137.112 30.8281 137.613 30.8281ZM143.2 32V23.8182H144.739V25.1179H144.824C144.973 24.6776 145.236 24.3313 145.613 24.0792C145.993 23.8235 146.422 23.6957 146.902 23.6957C147.001 23.6957 147.118 23.6992 147.253 23.7063C147.392 23.7134 147.5 23.7223 147.578 23.733V25.2564C147.514 25.2386 147.401 25.2191 147.237 25.1978C147.074 25.1729 146.911 25.1605 146.747 25.1605C146.371 25.1605 146.035 25.2404 145.74 25.4002C145.449 25.5565 145.218 25.7749 145.048 26.0554C144.877 26.3324 144.792 26.6484 144.792 27.0036V32H143.2Z" fill="white"/>
<path d="M107.557 47.875H102.58C102.489 47.2311 102.303 46.6591 102.023 46.1591C101.742 45.6515 101.383 45.2197 100.943 44.8636C100.504 44.5076 99.9962 44.2348 99.4205 44.0455C98.8523 43.8561 98.2348 43.7614 97.5682 43.7614C96.3636 43.7614 95.3144 44.0606 94.4205 44.6591C93.5265 45.25 92.8333 46.1136 92.3409 47.25C91.8485 48.3788 91.6023 49.75 91.6023 51.3636C91.6023 53.0227 91.8485 54.4167 92.3409 55.5455C92.8409 56.6742 93.5379 57.5265 94.4318 58.1023C95.3258 58.678 96.3598 58.9659 97.5341 58.9659C98.1932 58.9659 98.803 58.8788 99.3636 58.7045C99.9318 58.5303 100.436 58.2765 100.875 57.9432C101.314 57.6023 101.678 57.1894 101.966 56.7045C102.261 56.2197 102.466 55.6667 102.58 55.0455L107.557 55.0682C107.428 56.1364 107.106 57.1667 106.591 58.1591C106.083 59.1439 105.398 60.0265 104.534 60.8068C103.678 61.5795 102.655 62.1932 101.466 62.6477C100.284 63.0947 98.947 63.3182 97.4545 63.3182C95.3788 63.3182 93.5227 62.8485 91.8864 61.9091C90.2576 60.9697 88.9697 59.6098 88.0227 57.8295C87.0833 56.0492 86.6136 53.8939 86.6136 51.3636C86.6136 48.8258 87.0909 46.6667 88.0455 44.8864C89 43.1061 90.2955 41.75 91.9318 40.8182C93.5682 39.8788 95.4091 39.4091 97.4545 39.4091C98.803 39.4091 100.053 39.5985 101.205 39.9773C102.364 40.3561 103.39 40.9091 104.284 41.6364C105.178 42.3561 105.905 43.2386 106.466 44.2841C107.034 45.3295 107.398 46.5265 107.557 47.875ZM115.835 52.9091V63H110.994V39.7273H115.699V48.625H115.903C116.297 47.5947 116.934 46.7879 117.812 46.2045C118.691 45.6136 119.794 45.3182 121.119 45.3182C122.331 45.3182 123.388 45.5833 124.29 46.1136C125.199 46.6364 125.903 47.3902 126.403 48.375C126.911 49.3523 127.161 50.5227 127.153 51.8864V63H122.312V52.75C122.32 51.6742 122.047 50.8371 121.494 50.2386C120.949 49.6402 120.184 49.3409 119.199 49.3409C118.54 49.3409 117.956 49.4811 117.449 49.7614C116.949 50.0417 116.555 50.4508 116.267 50.9886C115.987 51.5189 115.843 52.1591 115.835 52.9091ZM130.963 63V45.5455H135.656V48.5909H135.838C136.156 47.5076 136.69 46.6894 137.44 46.1364C138.19 45.5758 139.054 45.2955 140.031 45.2955C140.274 45.2955 140.535 45.3106 140.815 45.3409C141.096 45.3712 141.342 45.4129 141.554 45.4659V49.7614C141.327 49.6932 141.012 49.6326 140.611 49.5795C140.209 49.5265 139.842 49.5 139.509 49.5C138.796 49.5 138.16 49.6553 137.599 49.9659C137.046 50.2689 136.607 50.6932 136.281 51.2386C135.963 51.7841 135.804 52.4129 135.804 53.125V63H130.963ZM151.131 63.3409C149.366 63.3409 147.839 62.9659 146.551 62.2159C145.271 61.4583 144.282 60.4053 143.585 59.0568C142.888 57.7008 142.54 56.1288 142.54 54.3409C142.54 52.5379 142.888 50.9621 143.585 49.6136C144.282 48.2576 145.271 47.2045 146.551 46.4545C147.839 45.697 149.366 45.3182 151.131 45.3182C152.896 45.3182 154.419 45.697 155.699 46.4545C156.987 47.2045 157.979 48.2576 158.676 49.6136C159.373 50.9621 159.722 52.5379 159.722 54.3409C159.722 56.1288 159.373 57.7008 158.676 59.0568C157.979 60.4053 156.987 61.4583 155.699 62.2159C154.419 62.9659 152.896 63.3409 151.131 63.3409ZM151.153 59.5909C151.956 59.5909 152.627 59.3636 153.165 58.9091C153.703 58.447 154.108 57.8182 154.381 57.0227C154.661 56.2273 154.801 55.322 154.801 54.3068C154.801 53.2917 154.661 52.3864 154.381 51.5909C154.108 50.7955 153.703 50.1667 153.165 49.7045C152.627 49.2424 151.956 49.0114 151.153 49.0114C150.343 49.0114 149.661 49.2424 149.108 49.7045C148.563 50.1667 148.15 50.7955 147.869 51.5909C147.597 52.3864 147.46 53.2917 147.46 54.3068C147.46 55.322 147.597 56.2273 147.869 57.0227C148.15 57.8182 148.563 58.447 149.108 58.9091C149.661 59.3636 150.343 59.5909 151.153 59.5909ZM162.869 63V45.5455H167.483V48.625H167.688C168.051 47.6023 168.657 46.7955 169.506 46.2045C170.354 45.6136 171.369 45.3182 172.551 45.3182C173.748 45.3182 174.767 45.6174 175.608 46.2159C176.449 46.8068 177.009 47.6098 177.29 48.625H177.472C177.828 47.625 178.472 46.8258 179.403 46.2273C180.343 45.6212 181.453 45.3182 182.733 45.3182C184.362 45.3182 185.684 45.8371 186.699 46.875C187.722 47.9053 188.233 49.3674 188.233 51.2614V63H183.403V52.2159C183.403 51.2462 183.146 50.5189 182.631 50.0341C182.116 49.5492 181.472 49.3068 180.699 49.3068C179.82 49.3068 179.134 49.5871 178.642 50.1477C178.15 50.7008 177.903 51.4318 177.903 52.3409V63H173.21V52.1136C173.21 51.2576 172.964 50.5758 172.472 50.0682C171.987 49.5606 171.347 49.3068 170.551 49.3068C170.013 49.3068 169.528 49.4432 169.097 49.7159C168.672 49.9811 168.335 50.3561 168.085 50.8409C167.835 51.3182 167.71 51.8788 167.71 52.5227V63H162.869ZM200.011 63.3409C198.216 63.3409 196.67 62.9773 195.375 62.25C194.087 61.5152 193.095 60.4773 192.398 59.1364C191.701 57.7879 191.352 56.1932 191.352 54.3523C191.352 52.5568 191.701 50.9811 192.398 49.625C193.095 48.2689 194.076 47.2121 195.341 46.4545C196.614 45.697 198.106 45.3182 199.818 45.3182C200.97 45.3182 202.042 45.5038 203.034 45.875C204.034 46.2386 204.905 46.7879 205.648 47.5227C206.398 48.2576 206.981 49.1818 207.398 50.2955C207.814 51.4015 208.023 52.697 208.023 54.1818V55.5114H193.284V52.5114H203.466C203.466 51.8144 203.314 51.197 203.011 50.6591C202.708 50.1212 202.288 49.7008 201.75 49.3977C201.22 49.0871 200.602 48.9318 199.898 48.9318C199.163 48.9318 198.511 49.1023 197.943 49.4432C197.383 49.7765 196.943 50.2273 196.625 50.7955C196.307 51.3561 196.144 51.9811 196.136 52.6705V55.5227C196.136 56.3864 196.295 57.1326 196.614 57.7614C196.939 58.3902 197.398 58.875 197.989 59.2159C198.58 59.5568 199.28 59.7273 200.091 59.7273C200.629 59.7273 201.121 59.6515 201.568 59.5C202.015 59.3485 202.398 59.1212 202.716 58.8182C203.034 58.5152 203.277 58.1439 203.443 57.7045L207.92 58C207.693 59.0758 207.227 60.0152 206.523 60.8182C205.826 61.6136 204.924 62.2348 203.818 62.6818C202.72 63.1212 201.451 63.3409 200.011 63.3409Z" fill="white"/>
<defs>
<linearGradient id="paint0_linear_14_65" x1="7034.57" y1="3345.49" x2="1710.29" y2="69.4844" gradientUnits="userSpaceOnUse">
<stop stop-color="#1E8E3E"/>
<stop offset="1" stop-color="#34A853"/>
</linearGradient>
<linearGradient id="paint1_linear_14_65" x1="1424.22" y1="3495.61" x2="4762.81" y2="1424.97" gradientUnits="userSpaceOnUse">
<stop stop-color="#FCC934"/>
<stop offset="1" stop-color="#FBBC04"/>
</linearGradient>
<linearGradient id="paint2_linear_14_65" x1="29.6825" y1="1458.93" x2="11119.9" y2="1458.93" gradientUnits="userSpaceOnUse">
<stop stop-color="#D93025"/>
<stop offset="1" stop-color="#EA4335"/>
</linearGradient>
</defs>
</svg>
