<?xml version="1.0" encoding="UTF-8"?>
<svg width="230px" height="87px" viewBox="0 0 230 87" version="1.1" xmlns="http://www.w3.org/2000/svg" xmlns:xlink="http://www.w3.org/1999/xlink">
    <title>Github</title>
    <g id="Page-1" stroke="none" stroke-width="1" fill="none" fill-rule="evenodd">
        <g id="Github">
            <rect id="Rectangle" stroke="#3E4651" fill="#24292F" x="0.5" y="0.5" width="229" height="86" rx="20"/>
            <path d="M53.5336223,13.0004014 C36.6493179,13.0004014 23,26.7503439 23,43.7608978 C23,57.3583409 31.7455884,68.8682928 43.8780377,72.9420258 C45.3949064,73.2482745 45.950529,72.2801535 45.950529,71.465782 C45.950529,70.7526599 45.9005292,68.3082952 45.9005292,65.7614308 C37.4068148,67.5951731 35.6380722,62.0945711 35.6380722,62.0945711 C34.2730779,58.529586 32.2505863,57.6133399 32.2505863,57.6133399 C29.4705979,55.7289728 32.4530855,55.7289728 32.4530855,55.7289728 C35.5368226,55.9327219 37.1549408,58.8864596 37.1549408,58.8864596 C39.8843044,63.57144 44.282411,62.2476955 46.0517786,61.4326989 C46.3042776,59.4464572 47.1136492,58.071463 47.9730206,57.3077162 C41.1986739,56.5945941 34.0712037,53.9464802 34.0712037,42.1309046 C34.0712037,38.7696687 35.2836986,36.0196802 37.2049406,33.8809391 C36.9018169,33.1171923 35.8399463,29.9590805 37.5086893,25.7322232 C37.5086893,25.7322232 40.0868036,24.9172266 45.8999042,28.88971 C48.3886994,28.2163769 50.9553535,27.8738482 53.5336223,27.8709642 C56.1117365,27.8709642 58.7398506,28.2278378 61.1667154,28.88971 C66.9804411,24.9172266 69.5585553,25.7322232 69.5585553,25.7322232 C71.2272983,29.9590805 70.1648028,33.1171923 69.861679,33.8809391 C71.8335458,36.0196802 72.9960409,38.7696687 72.9960409,42.1309046 C72.9960409,53.9464802 65.8685707,56.5433443 59.0435993,57.3077162 C60.1560946,58.2752121 61.1160906,60.1083294 61.1160906,63.0114423 C61.1160906,67.1364251 61.0660908,70.4470362 61.0660908,71.465157 C61.0660908,72.2801535 61.6223385,73.2482745 63.1385822,72.9426508 C75.2710314,68.8676678 84.0167563,57.3583409 84.0167563,43.7608978 C84.0666197,26.7503439 70.3673019,13.0004014 53.5336223,13.0004014 Z" id="Path" fill="#FFFFFF"/>
            <g id="Group-13" transform="translate(102.000000, 14.859000)" fill="#FFFFFF" fill-rule="nonzero">
                <g id="View-on" transform="translate(0.153156, 0.000000)">
                    <polygon id="Path" points="7.67780839 21.0529432 -1.13213308e-13 0 3.50295777 0 8.58569851 14.6539422 9.70792651 18.086507 9.9055686 18.086507 11.0156132 14.6665769 16.1434777 0 19.6134951 0 11.9478701 21.0529432"/>
                    <path d="M21.8371307,21.0529432 L21.8371307,5.78802516 L24.8116892,5.78802516 L24.8116892,21.0529432 L21.8371307,21.0529432 Z M21.8371307,3.44880926 L21.8371307,0 L24.8116892,0 L24.8116892,3.44880926 L21.8371307,3.44880926 Z" id="Shape"/>
                    <path d="M35.0360713,21.322332 C33.5409706,21.322332 32.2623136,20.9998475 31.2001002,20.3548786 C30.1378868,19.7099096 29.3276144,18.7986351 28.769283,17.6210553 C28.2109517,16.4434755 27.931786,15.0684792 27.931786,13.4960665 C27.931786,11.8725135 28.2109517,10.4654793 28.769283,9.274964 C29.3276144,8.0844487 30.1282604,7.16354789 31.171221,6.51226157 C32.2141816,5.86097525 33.4672685,5.53533209 34.9304817,5.53533209 C36.5410993,5.53533209 37.8694676,5.8963222 38.9155869,6.61830242 C39.9617062,7.34028263 40.7173788,8.33661534 41.1826048,9.60730052 C41.6478308,10.8779857 41.816368,12.3411989 41.6882166,13.9969403 L30.8391101,13.9969403 C30.8583629,15.113603 31.0396852,16.0457095 31.383077,16.7932599 C31.7264689,17.5408102 32.2126022,18.1007209 32.8414771,18.472992 C33.4703519,18.845263 34.2018833,19.0313986 35.0360713,19.0313986 C36.0501527,19.0313986 36.8844911,18.7859253 37.5390865,18.2949787 C38.1936819,17.8040322 38.6107759,17.1607177 38.7903685,16.3650354 L41.6110549,16.3650354 C41.4826026,17.3917514 41.1183786,18.2773053 40.518383,19.021697 C39.9183873,19.7660886 39.1466958,20.3356257 38.2033083,20.7303083 C37.2599208,21.1249908 36.2041752,21.322332 35.0360713,21.322332 Z M30.8585133,12.3603013 L30.5697212,11.9943476 L39.0791605,11.9943476 L38.7808925,12.3891806 C38.8064626,11.3239589 38.6588327,10.4575826 38.3380027,9.79005176 C38.0171728,9.12252089 37.5647318,8.62676114 36.9806799,8.30277251 C36.396628,7.97878389 35.7132286,7.81678958 34.9304817,7.81678958 C34.1281812,7.81678958 33.4270331,7.99006483 32.8270375,8.33661534 C32.2270418,8.68316584 31.7569274,9.1933652 31.4166942,9.8672134 C31.0764611,10.5410616 30.8904007,11.3720909 30.8585133,12.3603013 Z" id="Shape"/>
                    <polygon id="Path" points="46.4818644 21.0529432 42.6698088 5.78531774 45.6732465 5.78531774 48.5999739 18.1361431 48.7344427 18.1361431 51.3818539 5.78531774 54.8279557 5.78531774 57.6003598 18.1650223 57.6869974 18.1650223 60.5943215 5.78531774 63.4917183 5.78531774 59.6607108 21.0529432 55.7520904 21.0529432 53.0857272 9.55901809 52.9508071 9.55901809 50.438316 21.0529432"/>
                    <path d="M78.6917474,21.3087949 C77.5669624,21.3087949 76.5493463,21.1279238 75.6388992,20.7661817 C74.7284521,20.4044395 73.9418697,19.8776947 73.279152,19.1859475 C72.6164343,18.4942002 72.106235,17.6649758 71.7485539,16.6982744 C71.3908729,15.7315729 71.2120324,14.6473241 71.2120324,13.4455279 C71.2120324,11.8749201 71.5139103,10.4969155 72.1176663,9.31151425 C72.7214223,8.12611298 73.5837374,7.19994773 74.7046117,6.5330185 C75.825486,5.86608928 77.1545312,5.53262466 78.6917474,5.53262466 C79.8057027,5.53262466 80.817904,5.71342054 81.7283511,6.0750123 C82.6387982,6.43660406 83.4199658,6.96327359 84.0718538,7.65502089 C84.7237417,8.34676818 85.228451,9.17674461 85.5859817,10.1449502 C85.9435123,11.1131557 86.1222776,12.207783 86.1222776,13.4288321 C86.1222776,14.9801871 85.8231822,16.3478883 85.2249916,17.5319359 C84.6268009,18.7159835 83.7720816,19.6414718 82.6608337,20.3084011 C81.5495858,20.9753303 80.226557,21.3087949 78.6917474,21.3087949 Z M78.6755029,18.8211218 C79.5611319,18.8211218 80.3374111,18.6134021 81.0043403,18.1979626 C81.6712695,17.7825232 82.1883127,17.1712466 82.5554697,16.3641329 C82.9226267,15.5570192 83.1062052,14.5785856 83.1062052,13.4288321 C83.1062052,12.5678707 83.0044511,11.8025716 82.800943,11.132935 C82.5974348,10.4632983 82.3024758,9.89398683 81.916066,9.42500052 C81.5296561,8.9560142 81.0662351,8.60186786 80.5258028,8.3625615 C79.9853705,8.12325514 79.3740187,8.00360196 78.6917474,8.00360196 C77.8061184,8.00360196 77.0271318,8.21402911 76.3547877,8.63488341 C75.6824436,9.05573772 75.1599105,9.66769116 74.7871882,10.4707437 C74.4144659,11.2737963 74.2281047,12.265391 74.2281047,13.4455279 C74.2281047,14.2953587 74.3298588,15.0550925 74.533367,15.7247292 C74.7368752,16.3943658 75.0346168,16.9581872 75.4265919,17.4161934 C75.818567,17.8741996 76.2895839,18.2228559 76.8396426,18.4621623 C77.3897012,18.7014686 78.0016547,18.8211218 78.6755029,18.8211218 Z" id="Shape"/>
                    <path d="M89.2453744,21.0529432 L89.2453744,5.78802516 L92.0836591,5.78802516 L92.2032371,8.82034208 L92.36839,8.82034208 C92.8193269,7.7259404 93.5131047,6.90438708 94.4497236,6.35568211 C95.3863426,5.80697715 96.4183982,5.53262466 97.5458907,5.53262466 C98.3271334,5.53262466 99.0498657,5.65084892 99.7140875,5.88729744 C100.378309,6.12374597 100.955217,6.49774676 101.444809,7.00929983 C101.934402,7.5208529 102.315999,8.18575155 102.589599,9.0039958 C102.8632,9.82224005 103,10.8145116 103,11.9808105 L103,21.0529432 L100.025441,21.0529432 L100.025441,12.5994573 C100.025441,11.5543909 99.8989445,10.6914741 99.6459506,10.010707 C99.3929567,9.32993979 99.0065469,8.82455363 98.4867212,8.49454851 C97.9668954,8.16454338 97.2957546,7.99954082 96.4732988,7.99954082 C95.5988003,7.99954082 94.8417739,8.21132169 94.2022198,8.63488341 C93.5626657,9.05844514 93.0696133,9.62362028 92.7230628,10.3304088 C92.3765123,11.0371974 92.2032371,11.8334062 92.2032371,12.7190353 L92.2032371,21.0529432 L89.2453744,21.0529432 Z" id="Path"/>
                </g>
                <g id="GitHub_Logo" transform="translate(0.000000, 29.141000)">
                    <path d="M20.3951061,12.1463049 L11.4968507,12.1463049 C11.2672429,12.1463049 11.080852,12.3310152 11.080852,12.5585526 L11.080852,16.8698193 C11.080852,17.0973568 11.2672429,17.2823584 11.4968507,17.2823584 L14.9680141,17.2823584 L14.9680141,22.6389573 C14.9680141,22.6389573 14.1886413,22.9020383 12.03368,22.9020383 C9.49153131,22.9020383 5.94010811,21.9816916 5.94010811,14.2425046 C5.94010811,6.50186098 9.63823331,5.48333223 13.1099847,5.48333223 C16.1151708,5.48333223 17.4099115,6.00774635 18.233677,6.26033914 C18.492684,6.33870992 18.7319935,6.08349505 18.7319935,5.85595759 L19.7248044,1.69036149 C19.7248044,1.58373062 19.6883494,1.4555405 19.5660487,1.36842949 C19.2314859,1.13186046 17.1902995,0 12.03368,0 C6.09357192,0 0,2.50466007 0,14.5443341 C0,26.5842994 6.97642986,28.3783784 12.8553876,28.3783784 C17.723013,28.3783784 20.6758685,26.3171396 20.6758685,26.3171396 C20.7975812,26.2507138 20.8108108,26.0820272 20.8108108,26.0048218 L20.8108108,12.5585526 C20.8108108,12.3310152 20.6247139,12.1463049 20.3951061,12.1463049" id="Path"/>
                    <path d="M66.2162162,1.3555026 C66.2162162,1.12899446 66.0380833,0.945945946 65.8151316,0.945945946 L60.9501607,0.945945946 C60.72778,0.945945946 60.5473633,1.12899446 60.5473633,1.3555026 C60.5473633,1.35665385 60.5485051,10.834595 60.5485051,10.834595 L52.9652938,10.834595 L52.9652938,1.3555026 C52.9652938,1.12899446 52.7863045,0.945945946 52.5636383,0.945945946 L47.6989529,0.945945946 C47.477714,0.945945946 47.2972973,1.12899446 47.2972973,1.3555026 L47.2972973,27.0220123 C47.2972973,27.2482327 47.477714,27.4324324 47.6989529,27.4324324 L52.5636383,27.4324324 C52.7863045,27.4324324 52.9652938,27.2482327 52.9652938,27.0220123 L52.9652938,16.0434188 L60.5485051,16.0434188 C60.5485051,16.0434188 60.5353735,27.0211489 60.5353735,27.0220123 C60.5353735,27.2482327 60.7155048,27.4324324 60.9384565,27.4324324 L65.8148461,27.4324324 C66.0375123,27.4324324 66.2156453,27.2482327 66.2162162,27.0220123 L66.2162162,1.3555026 Z" id="Path"/>
                    <path d="M26.9603544,0.945945946 C28.7907116,0.945945946 30.2702703,2.42826364 30.2702703,4.25735932 C30.2702703,6.08434602 28.7907116,7.56756757 26.9603544,7.56756757 C25.1317869,7.56756757 23.6486486,6.08434602 23.6486486,4.25735932 C23.6486486,2.42826364 25.1317869,0.945945946 26.9603544,0.945945946" id="Path" transform="translate(26.959459, 4.256757) scale(-1, 1) rotate(-90.000000) translate(-26.959459, -4.256757) "/>
                    <path d="M29.3243243,26.781159 L29.3243243,9.86579001 C29.3243243,9.64230821 29.1444161,9.45945946 28.9216726,9.45945946 L24.0704335,9.45945946 C23.84769,9.45945946 23.6486486,9.68923652 23.6486486,9.91300447 L23.6486486,26.7891711 C23.6486486,27.2847799 23.9570627,27.4324324 24.3562876,27.4324324 L28.7272004,27.4324324 C29.2066701,27.4324324 29.3243243,27.1963601 29.3243243,26.781159 Z" id="Path"/>
                    <path d="M84.7178883,9.45945946 L79.7383111,9.45945946 C79.5098118,9.45945946 79.3240088,9.64683355 79.3240088,9.87760572 L79.3240088,22.6993892 C79.3240088,22.6993892 78.0587233,23.6213049 76.2631192,23.6213049 C74.467515,23.6213049 73.9910821,22.809937 73.9910821,21.0590595 L73.9910821,9.87760572 C73.9910821,9.64683355 73.8055737,9.45945946 73.5770744,9.45945946 L68.5229993,9.45945946 C68.2950889,9.45945946 68.1081081,9.64683355 68.1081081,9.87760572 L68.1081081,21.9056151 C68.1081081,27.1060526 71.0185298,28.3783784 75.0222736,28.3783784 C78.3072458,28.3783784 80.9556,26.5712007 80.9556,26.5712007 C80.9556,26.5712007 81.0813335,27.5236124 81.1387528,27.636506 C81.1955831,27.7491064 81.3442844,27.8628797 81.5050584,27.8628797 L84.720244,27.8488046 C84.9481544,27.8488046 85.1351351,27.6611373 85.1351351,27.4312449 L85.1333684,9.87760572 C85.1333684,9.64683355 84.947271,9.45945946 84.7178883,9.45945946" id="Path"/>
                    <path d="M96.3251191,23.6393285 C94.6571353,23.5869681 93.5257156,22.8085834 93.5257156,22.8085834 L93.5257156,14.5476422 C93.5257156,14.5476422 94.6417805,13.843849 96.0111992,13.7180671 C97.742877,13.558646 99.4114295,14.0965827 99.4114295,18.3462535 C99.4114295,22.8273044 98.6584767,23.7118724 96.3251191,23.6393285 M98.2217186,8.94186773 C95.4905585,8.94186773 93.6329147,10.1955908 93.6329147,10.1955908 L93.6329147,1.36219605 C93.6329147,1.13198605 93.4537757,0.945945946 93.2331218,0.945945946 L88.3733346,0.945945946 C88.1523964,0.945945946 87.972973,1.13198605 87.972973,1.36219605 L87.972973,27.4481779 C87.972973,27.6783879 88.1523964,27.865598 88.3739033,27.865598 L91.7456988,27.865598 C91.8975405,27.865598 92.012417,27.7848636 92.0974369,27.643871 C92.1813195,27.5037559 92.3021673,26.4413382 92.3021673,26.4413382 C92.3021673,26.4413382 94.2891893,28.3783784 98.0508256,28.3783784 C102.467315,28.3783784 105,26.0739382 105,18.0332615 C105,9.99258479 100.954869,8.94186773 98.2217186,8.94186773" id="Shape"/>
                    <path d="M43.9667557,8.91010861 L40.1470318,8.91010861 C40.1470318,8.91010861 40.1413548,4.06037785 40.1413548,4.05922896 C40.1413548,3.87569458 40.0430531,3.78378378 39.8219489,3.78378378 L34.6170373,3.78378378 C34.4147569,3.78378378 34.3059976,3.86966294 34.3059976,4.05664397 L34.3059976,9.06922918 C34.3059976,9.06922918 31.697566,9.67440435 31.5212802,9.72351919 C31.345592,9.7723468 31.2162162,9.92802071 31.2162162,10.1138529 L31.2162162,13.2638083 C31.2162162,13.4901386 31.4044535,13.6730986 31.6372105,13.6730986 L34.3059976,13.6730986 L34.3059976,21.251144 C34.3059976,26.8795315 38.4131569,27.4324324 41.1844287,27.4324324 C42.450997,27.4324324 43.9658593,27.0415243 44.2159461,26.9527729 C44.3671335,26.8993498 44.4552764,26.7488459 44.4552764,26.5857042 L44.4594595,23.1203798 C44.4594595,22.8943367 44.2607645,22.7113768 44.03727,22.7113768 C43.8146719,22.7113768 43.2451793,22.7984048 42.6589544,22.7984048 C40.7828557,22.7984048 40.1470318,21.960006 40.1470318,20.8745969 C40.1470318,19.7897623 40.146733,13.6730986 40.146733,13.6730986 L43.9667557,13.6730986 C44.1995127,13.6730986 44.3883476,13.4901386 44.3883476,13.2638083 L44.3883476,9.31825001 C44.3883476,9.09220688 44.1995127,8.91010861 43.9667557,8.91010861" id="Path"/>
                </g>
            </g>
        </g>
    </g>
</svg>